<svg xmlns="http://www.w3.org/2000/svg" viewBox="0 0 171.31 47.8"><defs><style>.cls-1{fill:#000000;fill-rule:evenodd;}</style></defs><g id="图层_2" data-name="图层 2"><g id="图层_1-2" data-name="图层 1"><path class="cls-1" d="M122.7,40.29c-1.83-.39-.74-1-1-2.53-.25-1.34-1.47-2.66-1.43-3.66.1-2.7,3.55-2.53,5.65-1.67a3.78,3.78,0,0,1,1.19,1.27c1,1.39,2.09,3.4.6,4.92a5.82,5.82,0,0,1-5,1.67"/><path class="cls-1" d="M101.9,37.49l-.18-.08c0-.2,0-.4,0-.58a58.28,58.28,0,0,0,5.54-3.6,7.78,7.78,0,0,0,3.16-4.3c-3.57,1.17-6.94,3.77-10.64,4a22.08,22.08,0,0,1-4.08-1.87,1.56,1.56,0,0,1,0-.2c-2-1.28-2.13-2.92,0-3.63,3.71.83,9.4-1.83,12.9-3.16.79-.35,3-1.15,3.66-1.87.82-4.9.29-9.82.58-14.51,1.2-3.4,3.31-1.09,5.41.61.14.28.62.59,1,1.23h.21c.89,1.41,1.14,2.06-.24,3.38A17.9,17.9,0,0,0,118,20.46c2.55-.37,4.1-2.6,7-2.65a2.69,2.69,0,0,1-.68,3.68c-2.16,1-4.5,2-6.94,3.07-.57,2.48-1.56,5.51-3.3,7.52a16.44,16.44,0,0,1-1.82,1.65,20.8,20.8,0,0,1-4.74,2.52c-4.79,1.34-4.85,1.12-5.71,1.24"/><path class="cls-1" d="M56.08,45.85c-1.77-.81-3.37-2.93-4.32-4.26.16-.48.32-1,.51-1.39a113.38,113.38,0,0,0,12-9.72c1.15-1.75,2.64-3.58,3.86-5.32a.43.43,0,0,1,.21-.06,1,1,0,0,0,0-.19c1.07-.83,1.51-1.05,2.41.31.07,1.13-2,2.35-2.61,3.42-.8,2-1.7,4.1-2.74,6.17a16.66,16.66,0,0,0-1.66,2.55,14.74,14.74,0,0,0-3.23,4.49c-1.31.77-1.88,3.08-3.46,3.89-.35,0-.67.07-1,.11"/><path class="cls-1" d="M80.61,31.29c-2.56-.11-3.29-1.75-4.69-3.24,0-.68.37-1.08.43-1.55a2.33,2.33,0,0,0,1-.39C78.46,26,78.84,26,80,26c1.47-.34,5.25-2.94,6.52-1.82.19,3.11-3.2,6.26-5.92,7.16"/><path class="cls-1" d="M60.92,26.37c-1-.86-1.17-4.81-1.25-6.06.74-2.22,3-2.3,4.82-.87,1.48,1.95,2.48,2.75.93,5a6.66,6.66,0,0,1-4.5,1.91"/><path class="cls-1" d="M79.92,24.46c-.27-1.21,1.39-3.78.92-4.41-.62.1-1.26.33-1.91.37-1.54-.75-3.24-2.63-2.62-4.08,1.14-1.29.7-1,2.49-1.07,1.69-.76,3.38-1.49,5.1-2.22,2.88-.54,4.21,1,4.38,3.85a13,13,0,0,1-2.92,4.69c-1.52.83-2.9,1.76-4.29,2.66-.4.05-.78.13-1.15.21"/><path class="cls-1" d="M64.18,16.31c-.6-.53-.35-.82,0-1.36-.07-1.19-.78-2.15-.85-3.28.38-2.09,0-2.85,1.71-3.86,1.35.6,6,3,4.92,5.61a9.39,9.39,0,0,1-5.75,2.89"/><path class="cls-1" d="M3.49,47.8c-2.78-1.07-5.22-6.59-1.85-7.95a1.62,1.62,0,0,1,.9-1.12,1.15,1.15,0,0,0,0-.2c2.7-2.62,4.48-6.28,6.76-9.16.58-1.1.9-2.16,2.15-2.47.62.55.4,1.81.23,2.76.28.25,1.24.07,1.82-.11,1.88-1.63,4.33-3.05,6.2-4.76.1-.83.2-1.67.32-2.47-1.31.32-5.62,1.32-4.58-1.1,1.61-.64,4.06-2,4.93-3.77.42-1.76.18-3.73,1.08-5,1.8-1,3.95,1.34,4.31,3.3.73,1.28,3-.31.17,3.66-.6.44-.57,1.3-.45,2.21l.62.05a60.23,60.23,0,0,1,5.1-3.4,20.63,20.63,0,0,1,2.12-6.8c1.75-1.2,4.14.1,5.85,1.47a5.91,5.91,0,0,0,3.33-1.51,3,3,0,0,1,1.36-.14,4.65,4.65,0,0,1,.54,2.21c-.84,2.59-8.26,3.43-6.83,6.45,1.29-.08,1.74-1.5,2.21-2.44,1.46-.77,4.59.15,6.11,1.27,1.69,2.05.38,2.75-1.49,4.05-.19.28-.38.55-.54.83-.13,4.14-.13,4.14-.08,9.75a9.64,9.64,0,0,1-2.26,3.48c0,.06,0,.12,0,.17l-.2,0c-.73,1.25-2.48,2.48-3.53,1.31,0-4.61.24-9.38.09-13.77a.48.48,0,0,0-.23.08c-.33,2.23-2.58,6.45-4.5,7.84a3.67,3.67,0,0,1-3.76-2.43c.18-.45.52-.56.89-.88,1-2,.7-5.81.7-7.81-1.44.21-3.87,3.46-4.94,4.68-.73.57-1.47,1.15-2.17,1.73-.51,1.71-.91,3.39-1.36,5.22-.39.82-.78,1.67-1.17,2.52l-.2,0c-.67,1.13-2.85,4.1-4.15,2.23a6,6,0,0,1,0-.73,11.56,11.56,0,0,0,1.95-5.68c-1.77.59-2.94,2.19-4.71,2.3a11.39,11.39,0,0,1-2.71-.86,1.28,1.28,0,0,0,0-.21c-.43-.27-.87-.65-1.13-.55-.32,1-.64,2-.93,3A71.73,71.73,0,0,0,5.09,46.87a2.62,2.62,0,0,1-1.6.93"/><path class="cls-1" d="M7,25.88c-.55-.8.12-1.84.15-2.76-.86-2.6-1.55-4.54.11-6.74.27,0,.53-.06.8-.08a21.92,21.92,0,0,1,4,4.16c1.26,3.11-2.76,4.51-5,5.42"/><path class="cls-1" d="M9.47,15.8c-.66-.22-.64-.38-.77-.6.31-.64.62-1,.49-1.66-1.6-2.44-1.51-6.17,1.25-7.4.8.1.82.78,1.18,1.88,1.79,1.74,5.13,3.9,2,6.26-1.34.59-2.78,1.05-4.12,1.52"/><path class="cls-1" d="M142.55,25.35c-2.5-.77-2-4.88-1.61-6.53,1.83-1.16,4.22,1.25,4.35,3.39-.46,2.36-.44,2.71-2.74,3.14"/><path class="cls-1" d="M156.05,44.26c-.1,0-.16-.11-.22-.13a22.63,22.63,0,0,1-9.1-1.13,1,1,0,0,1-.15-.63c1.68-1,4.06-.71,5.35-2.48a14.79,14.79,0,0,0,.23-3.74c-3.16.2-4.86,2.43-7.36,3.34-2.15.13-6-1.81-6.6-3.52,0-2.76.58-1.52,3.53-1.7,3.52-.62,7-2.64,10.44-4.13a3.54,3.54,0,0,1,1.12-.72c.76-2.28,1.28-2.69,3.67-3.16.93-.47.93-.47,3.66-2.12a8.1,8.1,0,0,1,.24-.8c-4.14.49-7.48,3.84-10.78,6.05a5.57,5.57,0,0,1-4-.33c-.72.1-4.84.82-2.85-.81,1.23-.48,2.16-1.36,3.46-1.93,3.11-2.09,6.69-3.88,10-5.8a1.68,1.68,0,0,0-.32-.95,4,4,0,0,1,.34-1.59c-.63.22-.81.17-.92.64-2,.88-2.84,2.68-4.5.78a3.77,3.77,0,0,1-3.42,3.06c-1.77-.91-1.82-3.87-2.13-5.25-.13-.17-.38-1.31-.87-2.65-.8-1.64-2.28-3.46-1.3-5,1.27-.78,1.77-1.07,2.84.64a15,15,0,0,1,3,2.87l.21,0c.56,1.51,1.93,3.49,1.79,5.42.93-.56,2.26-1.63,1.57-2.81-1.54-.83-.66-2.25.41-2.78a7.69,7.69,0,0,0,1.75-.06.7.7,0,0,0-.25-.59c-1.28-.44-1-.75-.69-1.79a2.37,2.37,0,0,1-1.48-3.22c4.33-1.09,4.33-1.09,6.36-1.74,1.35-1.68,2.81-6.28,5.42-5.43a5.92,5.92,0,0,1,1.23,4.21,7.26,7.26,0,0,0-.92,2,6.77,6.77,0,0,1,.78,0c1.81-.9,2.64-2,3.72.73,1.74.94,2.37.69,1.71,3.24-1.27,2.55-2.64,5.28-4.05,7.84a1.45,1.45,0,0,0,0,.35c.33.07.65.14,1,.23a22.72,22.72,0,0,1,.19,4c-1.1,1.61-2.47,1.61-4.2,1.83-2.2,1.1-4.18,2-6.26,3.24a3,3,0,0,0,.14,1.36c1.05,0,2.12,0,3.2-.05,1.19.77,1.09,2.93.35,4.19a7.54,7.54,0,0,0-2.86.82c-.11.59-.22,1.18-.32,1.79.08,2.3,1.27,7.84-2.13,8.37M162.82,16a4.68,4.68,0,0,0,1.72-3.63,5,5,0,0,0-3.37-.84,11.25,11.25,0,0,1-1.19,2.4,2,2,0,0,0,.33.16,1.13,1.13,0,0,0-.32.13.75.75,0,0,0,.08.2c.47.06.73-.3.94-.64,1.68-.28,1.72.33,1.59,2.11a2.21,2.21,0,0,1,.22.11"/></g></g></svg>